<svg width="381" height="164" viewBox="0 0 381 164" fill="none" xmlns="http://www.w3.org/2000/svg">
<path d="M160.109 15.7876C186.018 14.0155 226.609 15.7877 226.609 15.7877C226.609 15.7877 294.635 19.1946 306.609 51.1924C313.55 69.7421 309.66 83.0968 303.109 101.788C293.673 128.706 280.821 145.343 254.479 156.288C223.777 169.044 203.379 144.74 170.132 144.74C136.885 144.74 85.7851 156.288 85.7851 156.288C85.7851 156.288 55.7447 122.495 45.1322 96.2401C38.329 79.4089 27.9562 68.4287 33.6557 51.1924C41.4946 27.4863 68.1332 32.2592 92.1088 25.2877C117.856 17.8009 133.358 17.6174 160.109 15.7876Z" fill="#D9D9D9" fill-opacity="0.1"/>
<path d="M152.5 140C152.5 140 104.5 73 87 72.5C69.5 72 47 148.5 47 148.5" stroke="#FFB235" stroke-opacity="0.92" stroke-width="11"/>
<path d="M80 101C96.5 107.5 134 123.9 152 137.5" stroke="url(#paint0_linear_118_92)" stroke-width="11"/>
<path d="M29 83L83 126.5V102.5" stroke="url(#paint1_linear_118_92)" stroke-width="11"/>
<path d="M83 128C83 128 173 90 179.5 84.0002C157.5 80.0001 93 88.0002 83 100.5C61.4426 115.545 51.5 143.5 42 150.5" stroke="url(#paint2_linear_118_92)" stroke-opacity="0.9" stroke-width="11"/>
<path fill-rule="evenodd" clip-rule="evenodd" d="M87.0611 67.8538C85.3078 67.8538 83.7731 68.7899 82.9296 70.1896L34.0658 76.8899C32.9222 75.8814 31.4205 75.2695 29.7758 75.2695C26.7391 75.2695 24.1897 77.3555 23.4822 80.1728L8.10187 93.1486C5.18466 93.7838 3.0001 96.3811 3.0001 99.4887C3.0001 99.6427 3.00547 99.7955 3.01603 99.9468C2.5197 100.927 2.14329 101.913 1.85092 102.836C1.11644 105.155 0.758209 107.581 0.5448 109.631C0.413162 110.895 0.312881 112.332 0.234406 113.456L0.203353 113.9C0.0753247 114.408 0.00732422 114.94 0.00732422 115.489C0.00732422 115.618 0.0110888 115.746 0.0185139 115.873C0.0127385 115.908 0.00756298 115.937 0.00305176 115.959C0.00610554 115.946 0.0115554 115.924 0.0198447 115.895C0.229611 119.289 3.04891 121.977 6.49604 121.977C7.12686 121.977 7.73666 121.887 8.31329 121.72L8.66103 122.111C8.9686 121.837 9.22567 121.552 9.44011 121.273C11.544 120.2 12.9848 118.012 12.9848 115.489C12.9848 113.883 12.4013 112.413 11.4348 111.28C11.4506 111.114 11.4675 110.945 11.4857 110.77C11.6682 109.017 11.9315 107.439 12.3375 106.157C12.4726 105.731 12.6085 105.385 12.7373 105.107C14.618 104.017 15.901 102.01 15.9742 99.6979L29.7401 88.9533C30.2161 89.3694 30.7328 89.8266 31.2815 90.3203C34.1277 92.8812 37.77 96.3635 41.0791 100.136C44.4543 103.983 47.1799 107.794 48.5288 111.016C49.9122 114.32 49.2812 115.412 48.8892 115.855C42.2362 123.371 39.951 133.662 39.1632 141.347C38.7582 145.297 38.7248 148.813 38.7914 151.345C38.8241 152.583 38.8809 153.596 38.9319 154.321C37.7538 155.329 37.0072 156.827 37.0072 158.5C37.0072 161.538 39.4697 164 42.5072 164C45.5448 164 48.0072 161.538 48.0072 158.5C48.0072 157.769 47.8647 157.072 47.6058 156.434C48.4872 155.698 49.5556 154.829 50.7901 153.864C54.6776 150.825 60.1782 146.865 66.6398 143.162C69.5809 141.477 72.6762 139.87 75.8728 138.434C77.7535 139.961 80.1512 140.876 82.7625 140.876C87.762 140.876 91.9781 137.522 93.2832 132.941C99.0935 131.971 104.93 131.964 110.527 133.378L110.786 133.443L111.051 133.474L111.066 133.476L111.137 133.484L111.192 133.491L111.301 133.504L111.438 133.522C111.706 133.556 112.109 133.61 112.628 133.684C113.667 133.832 115.171 134.063 117.004 134.39C120.679 135.046 125.637 136.081 130.813 137.6C136.012 139.126 141.296 141.1 145.688 143.589C150.142 146.113 153.256 148.928 154.727 151.931C155.237 152.973 155.68 153.824 156.054 154.453L156.065 154.47C156.357 156.852 158.388 158.696 160.849 158.696C163.511 158.696 165.669 156.538 165.669 153.876C165.669 152.271 164.885 150.85 163.68 149.974L163.672 149.942C162.883 146.898 161.096 141.395 159.126 135.544C157.218 129.877 155.086 123.734 153.398 118.87L153.189 118.267C152.328 115.784 151.598 113.678 151.087 112.18C150.991 111.897 150.904 111.64 150.825 111.407C151.04 111.112 151.314 110.766 151.655 110.372C152.604 109.274 153.926 107.961 155.564 106.486C157.067 105.133 158.787 103.689 160.644 102.206C164.504 99.969 169.133 97.2658 173.6 94.608C178.879 91.4668 183.996 88.3503 187.342 86.1373C188.126 86.5379 189.013 86.7638 189.954 86.7638C193.128 86.7638 195.701 84.1907 195.701 81.0167C195.701 77.8426 193.128 75.2695 189.954 75.2695C188.897 75.2695 187.907 75.5547 187.056 76.0523C187.001 76.0673 186.948 76.0821 186.898 76.0963C186.253 76.2805 185.515 76.5581 184.704 76.9112L91.1109 70.0589C90.2523 68.7319 88.7592 67.8538 87.0611 67.8538ZM92.5057 124.962C98.9959 123.935 105.671 123.943 112.235 125.559L112.342 125.572L112.454 125.587C112.759 125.626 113.199 125.684 113.759 125.764C114.877 125.924 116.473 126.169 118.409 126.514C122.273 127.204 127.53 128.299 133.066 129.924C138.579 131.542 144.503 133.723 149.632 136.629C150.229 136.967 150.821 137.319 151.405 137.684C149.546 132.169 147.487 126.236 145.837 121.483L145.837 121.481L145.631 120.889C144.772 118.414 144.034 116.284 143.514 114.759C143.256 114 143.044 113.371 142.898 112.916C142.826 112.695 142.759 112.48 142.708 112.301C142.684 112.22 142.647 112.089 142.615 111.945C142.6 111.881 142.569 111.738 142.544 111.559C142.532 111.472 142.512 111.304 142.508 111.094L142.508 111.088C142.505 110.956 142.493 110.415 142.701 109.77C142.829 109.374 142.993 108.983 143.185 108.597L146.36 101.19L147.527 100.524L147.529 100.524L148.037 100.233C148.371 100.043 148.859 99.7634 149.479 99.4084C150.718 98.6982 152.48 97.6857 154.571 96.4773C155.071 96.1883 155.59 95.8881 156.125 95.5783C158.298 93.8576 160.609 92.1157 162.948 90.4229C166.546 87.8189 170.25 85.3008 173.672 83.1223L89.5126 76.9606L87.3036 92.4236C89.621 94.0301 91.1386 96.7088 91.1386 99.7421C91.1386 104.657 87.1544 108.641 82.2398 108.641C77.3251 108.641 73.341 104.657 73.341 99.7421C73.341 95.4468 76.3842 91.8622 80.4321 91.027L82.3889 77.3292L39.7723 83.173C42.6231 85.7894 46.0972 89.1757 49.348 92.8813C52.9777 97.0186 56.6355 101.895 58.6755 106.768C60.6811 111.559 61.7066 117.971 57.1259 123.146C52.7841 128.051 50.8192 135.51 50.1058 142.469C50.035 143.16 49.9775 143.836 49.9312 144.493C53.4953 141.9 57.8165 138.998 62.6621 136.221C65.5431 134.57 68.6499 132.94 71.9266 131.439C71.8592 130.949 71.8243 130.447 71.8243 129.938C71.8243 123.897 76.7215 119 82.7625 119C87.0114 119 90.6945 121.422 92.5057 124.962Z" fill="url(#paint3_linear_118_92)"/>
<path d="M106.929 70.7653C108.622 78.5923 116.121 83.6118 123.679 81.9767C131.236 80.3416 135.989 72.671 134.296 64.844C132.602 57.017 125.103 51.9975 117.546 53.6326C109.989 55.2677 105.235 62.9383 106.929 70.7653Z" fill="#D9D9D9"/>
<path d="M117.353 69.5331C118.112 73.0417 121.473 75.2919 124.861 74.5589C128.249 73.8259 130.38 70.3874 129.62 66.8787C128.861 63.3701 125.5 61.1199 122.112 61.8529C118.724 62.5859 116.593 66.0244 117.353 69.5331Z" fill="black"/>
<path d="M44.7194 81.1559C46.4129 88.9829 53.912 94.0025 61.4691 92.3673C69.0262 90.7322 73.7796 83.0617 72.0861 75.2346C70.3926 67.4076 62.8935 62.3881 55.3363 64.0232C47.7792 65.6583 43.0258 73.3289 44.7194 81.1559Z" fill="#D9D9D9"/>
<path d="M55.1426 79.9239C55.9017 83.4326 59.2634 85.6827 62.6511 84.9498C66.0387 84.2168 68.1696 80.7782 67.4104 77.2696C66.6513 73.7609 63.2896 71.5108 59.9019 72.2438C56.5142 72.9768 54.3834 76.4153 55.1426 79.9239Z" fill="black"/>
<path d="M217.279 64.7213C215.028 66.9418 214.45 70.1355 215.514 72.873L206.633 81.7547V75.4584C206.633 73.7855 205.264 72.4167 203.591 72.4167H200.458C200.549 71.8997 200.549 71.413 200.549 70.8959C200.549 61.6493 193.067 54.1668 183.82 54.1668C180.375 54.1635 177.012 55.2249 174.193 57.2057C171.373 59.1865 169.235 61.9899 168.07 65.2325C166.904 68.4752 166.769 71.9986 167.683 75.3209C168.597 78.6431 170.515 81.6019 173.174 83.7926V102.833C173.174 104.506 174.543 105.875 176.216 105.875H203.591C205.264 105.875 206.633 104.506 206.633 102.833V90.3322L219.803 77.1617C222.541 78.2263 225.734 77.6788 227.924 75.4584L217.279 64.7213ZM173.326 72.4167C173.266 71.8997 173.174 71.413 173.174 70.8959C173.174 65.0255 177.95 60.2501 183.82 60.2501C189.691 60.2501 194.466 65.0255 194.466 70.8959C194.466 71.413 194.375 71.8997 194.314 72.4167H173.326Z" fill="url(#paint4_radial_118_92)"/>
<path d="M318.161 0.000822977C315.724 0.0272127 313.299 0.490536 311.424 1.63064C306.433 4.74964 303.008 10.4565 300.808 17.1438C299.175 22.1037 298.242 27.527 297.736 32.532C300.55 31.1791 303.434 29.7941 306.565 28.7239C311.395 27.0717 316.918 26.3865 322.775 28.6193C324.054 29.1086 325.347 29.5601 326.652 29.9732C331.181 28.0187 335.07 24.5132 333.288 19.7761L338.886 17.5807C340.301 23.5024 339.407 27.871 335.408 31.6007C337.399 31.602 338.975 31.2586 340.429 30.7656C344.038 29.5433 347.562 26.6895 353.974 25.5855L354.019 25.5778C354.019 25.5778 349.683 26.1911 354.063 25.5718C358.443 24.9525 362.838 26.5095 367.308 28.4613C370.002 29.6381 372.702 30.982 375.365 32.3082C374.245 26.6628 373.854 22.3444 370.401 17.1678C366.916 11.9422 364.436 6.053 358.188 6.70147C353.113 7.22826 350.942 12.3525 348.485 15.4518C346.084 13.0681 343.481 10.6626 341.416 8.94059C335.623 3.93089 328.352 1.25818 321.44 0.213611C320.354 0.0625441 319.258 -0.00857605 318.161 0.000822977ZM252.813 1.64433C240.473 7.57133 232.776 17.5015 227.402 28.1099C228.872 27.3696 230.463 26.5946 232.159 25.825C239.325 22.5747 247.886 19.2573 255.14 20.0203C262.257 21.5589 267.56 25.5788 272.717 29.9759C279.209 25.2491 285.943 23.0314 292.947 23.634C293.879 19.1594 294.938 15.2227 296.559 11.3384C295.37 9.84448 294.086 8.42999 292.713 7.104C286.417 8.16961 273.32 9.03045 273.32 9.03045C273.32 9.03045 255.979 3.04299 252.813 1.64433ZM226.228 3.07172L224.341 8.78125L231.284 11.0752C232.696 9.37957 234.201 7.76238 235.79 6.2308L226.228 3.07172ZM258.15 27.2617C250.514 31.89 240.666 33.6891 233.053 35.8765L234.727 41.6511C245.017 38.2392 255.864 37.1682 263.651 30.5167C261.853 29.2704 259.893 28.1009 258.15 27.2617ZM292.007 29.5934C282.046 29.6402 271.969 36.0462 271.717 43.9033C271.284 47.8334 271.587 50.8822 272.425 53.3615C269.056 55.6063 265.492 57.6874 261.935 59.199C262.705 61.1962 263.205 63.2029 263.56 65.1373C267.99 63.2373 271.74 61.0362 275.52 58.5232C279.425 62.2124 284.875 64.3844 289.095 65.5779C294.496 67.0758 300.377 67.9944 305.497 69.341C310.617 70.6875 315.438 72.3775 317.638 76.837C319.075 79.7502 319.298 82.8829 318.342 85.5697C317.719 87.3227 316.681 88.8463 315.387 90.1949H341.87C343.029 88.3653 344.218 86.3166 345.117 84.5886C350.493 85.0435 358.149 84.968 361.916 82.3291C365.485 79.7085 366.922 75.3181 368.07 71.5397C368.684 69.517 369.106 67.6784 369.378 66.3606C366.189 66.1178 363.155 67.0197 362.317 69.7933C361.304 73.1271 359.424 76.6994 358.358 77.482C354.663 78.8617 351.286 78.9929 347.681 78.7668C348.55 75.5987 349.202 70.6949 348.106 68.2941C341.584 67.4823 336.332 69.9262 330.074 74.6266L325.892 70.3809C328.056 67.5869 329.332 63.9284 331.059 60.0308C325.912 59.2768 320.156 58.9675 314.579 58.6972C307.047 58.3321 299.902 58.0853 294.424 56.4802C291.685 55.6778 289.213 54.5217 287.538 52.327C285.862 50.1323 285.509 47.0236 286.423 44.0252C287.322 41.0773 289.106 38.6133 291.39 36.5158C291.516 34.3278 291.707 32.0055 292.007 29.5934ZM298.84 38.7095C296.784 39.5724 294.906 41.3101 293.669 42.9409C305.947 48.895 313.941 47.6219 321.61 47.8771L321.81 41.8676C314.031 41.6087 308.336 42.7662 298.84 38.7095ZM348.65 50.6217C340.8 53.6825 338.507 57.7703 335.807 64.3206C344.638 61.2948 350.449 62.7238 359.347 63.0535L365.884 60.0361L380.746 61.2751C378.202 57.0718 375.628 53.4216 371.941 51.2296C368.253 49.0376 362.325 53.751 362.325 53.751C362.325 53.751 356.501 47.5608 348.65 50.6217ZM229.235 52.2531C224.297 55.3788 222.547 59.7311 220.711 64.4562L229.759 64.8718C232.947 62.7439 237.306 60.6006 240.382 61.1622C245.439 62.7389 248.55 66.8036 251.153 70.6408L257.375 65.0304C256.48 60.6003 255.011 56.8824 250.217 53.4874C242.921 55.8198 235.784 55.1807 229.235 52.2531ZM220 96.2077V102.221H377.67V96.2077H220ZM227.859 107.565L235.709 138.966H361.961L369.811 107.565H227.859ZM222.835 144.979L226.176 155H371.495L374.835 144.979H222.835Z" fill="url(#paint5_radial_118_92)"/>
<defs>
<linearGradient id="paint0_linear_118_92" x1="81.8363" y1="105.66" x2="129.576" y2="163.5" gradientUnits="userSpaceOnUse">
<stop stop-color="#FFB736"/>
<stop offset="1" stop-color="#FE6427"/>
</linearGradient>
<linearGradient id="paint1_linear_118_92" x1="30.3773" y1="88.5533" x2="123.823" y2="130.278" gradientUnits="userSpaceOnUse">
<stop stop-color="#FFB736"/>
<stop offset="1" stop-color="#FE6427"/>
</linearGradient>
<linearGradient id="paint2_linear_118_92" x1="45.5069" y1="91.5843" x2="133.272" y2="201.332" gradientUnits="userSpaceOnUse">
<stop stop-color="#FFB736"/>
<stop offset="1" stop-color="#FE6427"/>
</linearGradient>
<linearGradient id="paint3_linear_118_92" x1="4.9913" y1="80.1279" x2="129.939" y2="236.337" gradientUnits="userSpaceOnUse">
<stop stop-color="#FFB736"/>
<stop offset="1" stop-color="#FE6427"/>
</linearGradient>
<radialGradient id="paint4_radial_118_92" cx="0" cy="0" r="1" gradientUnits="userSpaceOnUse" gradientTransform="translate(174.5 73) rotate(15.1729) scale(61.131 78.3472)">
<stop offset="0.242609" stop-color="#FF892E"/>
<stop offset="1" stop-color="#FE6427"/>
</radialGradient>
<radialGradient id="paint5_radial_118_92" cx="0" cy="0" r="1" gradientUnits="userSpaceOnUse" gradientTransform="translate(307 87) rotate(46.2513) scale(119.246 155.503)">
<stop offset="0.25" stop-color="#FFB736"/>
<stop offset="1" stop-color="#FE6427"/>
</radialGradient>
</defs>
</svg>
