<svg viewBox="0 0 512 512" xmlns="http://www.w3.org/2000/svg">
<g clip-path="url(#clip0_120_2)">
<path d="M501.998 170C496.478 170 491.998 174.48 491.998 180C491.998 185.52 496.478 190 501.998 190C507.518 190 511.998 185.52 511.998 180C511.998 174.48 507.518 170 501.998 170Z" fill="url(#paint0_radial_120_2)"/>
<path d="M459.278 52.7199C455.368 48.8199 449.038 48.8199 445.138 52.7199C441.228 56.6299 441.228 62.9599 445.138 66.8599C449.038 70.7699 455.368 70.7699 459.278 66.8599C463.178 62.9599 463.178 56.6299 459.278 52.7199Z" fill="url(#paint1_radial_120_2)"/>
<path d="M459.278 293.14C455.368 289.23 449.038 289.23 445.138 293.14C441.228 297.04 441.228 303.37 445.138 307.28C449.038 311.18 455.368 311.18 459.278 307.28C463.178 303.37 463.178 297.04 459.278 293.14Z" fill="url(#paint2_radial_120_2)"/>
<path d="M331.998 0C326.478 0 321.998 4.48 321.998 10C321.998 15.52 326.478 20 331.998 20C337.518 20 341.998 15.52 341.998 10C341.998 4.48 337.518 0 331.998 0Z" fill="url(#paint3_radial_120_2)"/>
<path d="M331.998 340C326.478 340 321.998 344.48 321.998 350C321.998 355.52 326.478 360 331.998 360C337.518 360 341.998 355.52 341.998 350C341.998 344.48 337.518 340 331.998 340Z" fill="url(#paint4_radial_120_2)"/>
<path d="M218.858 52.7199C214.958 48.8199 208.628 48.8199 204.718 52.7199C200.818 56.6299 200.818 62.9599 204.718 66.8599C208.628 70.7699 214.958 70.7699 218.858 66.8599C222.768 62.9599 222.768 56.6299 218.858 52.7199Z" fill="url(#paint5_radial_120_2)"/>
<path d="M161.998 170C156.478 170 151.998 174.48 151.998 180C151.998 185.52 156.478 190 161.998 190C167.518 190 171.998 185.52 171.998 180C171.998 174.48 167.518 170 161.998 170Z" fill="url(#paint6_radial_120_2)"/>
<path d="M376.959 147.969L362.819 133.829C357.153 128.163 349.619 125.042 341.603 125.042C333.586 125.042 326.052 128.163 320.373 133.842L225.59 228.997C224.958 229.393 224.357 229.857 223.808 230.408C223.256 230.962 222.79 231.568 222.395 232.205L8.788 446.649C3.121 452.314 0 459.848 0 467.86C0 475.872 3.121 483.405 8.787 489.071L22.927 503.21C28.593 508.877 36.125 511.998 44.138 511.998C52.151 511.998 59.684 508.877 65.364 503.197L280.593 287.147L376.959 190.401C382.625 184.735 385.746 177.2 385.746 169.185C385.746 161.17 382.625 153.635 376.959 147.969V147.969ZM51.207 489.068C49.318 490.957 46.808 491.998 44.138 491.998C41.468 491.998 38.958 490.957 37.07 489.068L22.93 474.928C21.041 473.04 20 470.53 20 467.86C20 465.19 21.041 462.68 22.943 460.777L231.09 251.814L259.378 280.102L51.207 489.068ZM362.803 176.273L273.495 265.934L245.206 237.646L334.53 147.972C336.419 146.084 338.93 145.044 341.604 145.044C344.277 145.044 346.789 146.084 348.677 147.972L362.817 162.113C364.706 164.002 365.747 166.514 365.747 169.187C365.747 171.86 364.705 174.37 362.803 176.273Z"/>
<path d="M331.998 40C326.476 40 321.998 44.477 321.998 50V90C321.998 95.523 326.476 100 331.998 100C337.52 100 341.998 95.523 341.998 90V50C341.998 44.477 337.52 40 331.998 40Z" fill="url(#paint7_radial_120_2)"/>
<path d="M331.998 260C326.476 260 321.998 264.477 321.998 270V310C321.998 315.523 326.476 320 331.998 320C337.52 320 341.998 315.523 341.998 310V270C341.998 264.477 337.521 260 331.998 260Z" fill="url(#paint8_radial_120_2)"/>
<path d="M275.429 109.289L247.149 81.0088C243.243 77.1038 236.913 77.1038 233.006 81.0088C229.101 84.9138 229.101 91.2458 233.006 95.1508L261.287 123.431C263.24 125.384 265.799 126.36 268.358 126.36C270.917 126.36 273.476 125.383 275.429 123.431C279.334 119.526 279.334 113.194 275.429 109.289V109.289Z" fill="url(#paint9_radial_120_2)"/>
<path d="M430.988 264.849L402.709 236.569C398.803 232.664 392.473 232.664 388.566 236.569C384.661 240.474 384.661 246.806 388.566 250.711L416.846 278.991C418.799 280.944 421.358 281.92 423.917 281.92C426.476 281.92 429.035 280.943 430.988 278.991C434.893 275.086 434.893 268.754 430.988 264.849V264.849Z" fill="url(#paint10_radial_120_2)"/>
<path d="M430.989 81.0088C427.084 77.1038 420.754 77.1038 416.846 81.0088L388.566 109.289C384.661 113.194 384.661 119.526 388.566 123.431C390.52 125.384 393.078 126.36 395.638 126.36C398.197 126.36 400.756 125.383 402.709 123.431L430.989 95.1508C434.894 91.2458 434.894 84.9138 430.989 81.0088V81.0088Z" fill="url(#paint11_radial_120_2)"/>
<path d="M241.998 170H201.998C196.476 170 191.998 174.477 191.998 180C191.998 185.523 196.476 190 201.998 190H241.998C247.52 190 251.998 185.523 251.998 180C251.998 174.477 247.52 170 241.998 170Z" fill="url(#paint12_radial_120_2)"/>
<path d="M461.998 170H421.998C416.476 170 411.998 174.477 411.998 180C411.998 185.523 416.476 190 421.998 190H461.998C467.52 190 471.998 185.523 471.998 180C471.998 174.477 467.521 170 461.998 170Z" fill="url(#paint13_radial_120_2)"/>
</g>
<defs>
<radialGradient id="paint0_radial_120_2" cx="0" cy="0" r="1" gradientUnits="userSpaceOnUse" gradientTransform="translate(502.823 181.226) rotate(47.2921) scale(15.126 19.6808)">
<stop offset="0.25" stop-color="#FFB736"/>
<stop offset="0.833333" stop-color="#FE6427"/>
</radialGradient>
<radialGradient id="paint1_radial_120_2" cx="0" cy="0" r="1" gradientUnits="userSpaceOnUse" gradientTransform="translate(453.029 61.0193) rotate(47.2921) scale(15.1241 19.6784)">
<stop offset="0.25" stop-color="#FFB736"/>
<stop offset="0.833333" stop-color="#FE6427"/>
</radialGradient>
<radialGradient id="paint2_radial_120_2" cx="0" cy="0" r="1" gradientUnits="userSpaceOnUse" gradientTransform="translate(453.029 301.432) rotate(47.2921) scale(15.1241 19.6783)">
<stop offset="0.25" stop-color="#FFB736"/>
<stop offset="0.833333" stop-color="#FE6427"/>
</radialGradient>
<radialGradient id="paint3_radial_120_2" cx="0" cy="0" r="1" gradientUnits="userSpaceOnUse" gradientTransform="translate(332.823 11.2258) rotate(47.2921) scale(15.126 19.6808)">
<stop offset="0.25" stop-color="#FFB736"/>
<stop offset="0.833333" stop-color="#FE6427"/>
</radialGradient>
<radialGradient id="paint4_radial_120_2" cx="0" cy="0" r="1" gradientUnits="userSpaceOnUse" gradientTransform="translate(332.823 351.226) rotate(47.2921) scale(15.126 19.6808)">
<stop offset="0.25" stop-color="#FFB736"/>
<stop offset="0.833333" stop-color="#FE6427"/>
</radialGradient>
<radialGradient id="paint5_radial_120_2" cx="0" cy="0" r="1" gradientUnits="userSpaceOnUse" gradientTransform="translate(212.616 61.0193) rotate(47.2921) scale(15.1241 19.6783)">
<stop offset="0.25" stop-color="#FFB736"/>
<stop offset="0.833333" stop-color="#FE6427"/>
</radialGradient>
<radialGradient id="paint6_radial_120_2" cx="0" cy="0" r="1" gradientUnits="userSpaceOnUse" gradientTransform="translate(162.823 181.226) rotate(47.2921) scale(15.126 19.6808)">
<stop offset="0.25" stop-color="#FFB736"/>
<stop offset="0.833333" stop-color="#FE6427"/>
</radialGradient>
<radialGradient id="paint7_radial_120_2" cx="0" cy="0" r="1" gradientUnits="userSpaceOnUse" gradientTransform="translate(332.823 73.6774) rotate(72.8981) scale(34.8874 25.5989)">
<stop offset="0.25" stop-color="#FFB736"/>
<stop offset="0.833333" stop-color="#FE6427"/>
</radialGradient>
<radialGradient id="paint8_radial_120_2" cx="0" cy="0" r="1" gradientUnits="userSpaceOnUse" gradientTransform="translate(332.823 293.677) rotate(72.8981) scale(34.8874 25.5989)">
<stop offset="0.25" stop-color="#FFB736"/>
<stop offset="0.833333" stop-color="#FE6427"/>
</radialGradient>
<radialGradient id="paint9_radial_120_2" cx="0" cy="0" r="1" gradientUnits="userSpaceOnUse" gradientTransform="translate(256.208 105.179) rotate(47.2917) scale(36.5143 47.5096)">
<stop offset="0.25" stop-color="#FFB736"/>
<stop offset="0.833333" stop-color="#FE6427"/>
</radialGradient>
<radialGradient id="paint10_radial_120_2" cx="0" cy="0" r="1" gradientUnits="userSpaceOnUse" gradientTransform="translate(411.767 260.739) rotate(47.2923) scale(36.514 47.5091)">
<stop offset="0.25" stop-color="#FFB736"/>
<stop offset="0.833333" stop-color="#FE6427"/>
</radialGradient>
<radialGradient id="paint11_radial_120_2" cx="0" cy="0" r="1" gradientUnits="userSpaceOnUse" gradientTransform="translate(411.768 105.179) rotate(47.2917) scale(36.5143 47.5096)">
<stop offset="0.25" stop-color="#FFB736"/>
<stop offset="0.833333" stop-color="#FE6427"/>
</radialGradient>
<radialGradient id="paint12_radial_120_2" cx="0" cy="0" r="1" gradientUnits="userSpaceOnUse" gradientTransform="translate(224.472 181.226) rotate(19.8562) scale(32.7237 27.2915)">
<stop offset="0.25" stop-color="#FFB736"/>
<stop offset="0.833333" stop-color="#FE6427"/>
</radialGradient>
<radialGradient id="paint13_radial_120_2" cx="0" cy="0" r="1" gradientUnits="userSpaceOnUse" gradientTransform="translate(444.472 181.226) rotate(19.8562) scale(32.7237 27.2915)">
<stop offset="0.25" stop-color="#FFB736"/>
<stop offset="0.833333" stop-color="#FE6427"/>
</radialGradient>
</defs>
</svg>
