<svg width="301" height="159" viewBox="0 0 301 159" fill="none" xmlns="http://www.w3.org/2000/svg">
<g filter="url(#filter0_ii_118_29)">
<path opacity="0.8" d="M112.683 130.574C125.257 97.0445 238.531 59.8904 238.531 59.8904C222.446 63.9683 189.03 107.013 189.03 107.013C189.03 107.013 118.347 55.5859 83.0054 60.3435C83.0054 60.3435 221.356 59.5396 279.013 136" stroke="url(#paint0_linear_118_29)" stroke-width="11" stroke-miterlimit="10"/>
<path fill-rule="evenodd" clip-rule="evenodd" d="M297.199 63.6461C297.171 63.5973 296.915 63.1605 296.388 62.692L295.903 63.2376L295.949 63.2459L293.968 74.0661L255.494 67.0233C260.858 73.0122 267.435 80.371 272.382 85.9608C275.892 89.9253 278.254 95.3404 279.914 100.704C281.604 106.163 282.718 112.08 283.46 117.459C284.205 122.858 284.592 127.836 284.793 131.458C284.894 133.273 284.949 134.757 284.978 135.794C284.993 136.313 285.002 136.721 285.006 137.003C285.009 137.145 285.01 137.255 285.011 137.331L285.012 137.421L285.013 137.447L285.013 137.456L285.013 137.458C285.013 137.46 285.013 137.461 279.513 137.5L279.176 137.502L278.496 138.521C278.292 138.827 278.292 138.827 278.292 138.827L278.292 138.827L278.286 138.823L278.259 138.805L278.142 138.728C278.037 138.658 277.877 138.553 277.666 138.416C277.33 138.197 276.864 137.896 276.278 137.523C274.013 137.54 274.013 137.54 274.013 137.541L274.013 137.539L274.013 137.527L274.012 137.464C274.011 137.406 274.01 137.315 274.008 137.194C274.004 136.95 273.996 136.584 273.983 136.109L273.982 136.082C272.565 135.204 270.833 134.15 268.837 132.972C262.923 129.483 254.719 124.922 245.536 120.62C236.338 116.31 226.255 112.306 216.571 109.877C206.818 107.431 197.861 106.686 190.721 108.49L190.449 108.559L190.169 108.589L190.169 108.589L190.168 108.589L190.16 108.59L190.127 108.593L189.987 108.609C189.901 108.618 189.786 108.631 189.643 108.647L189.428 108.672C188.936 108.729 188.208 108.814 187.276 108.929C185.413 109.16 182.737 109.507 179.498 109.974C173.015 110.91 164.309 112.321 155.377 114.23C146.416 116.144 137.366 118.529 130.136 121.379C126.519 122.805 123.478 124.301 121.169 125.839C118.809 127.411 117.533 128.816 116.987 129.931C116.435 131.06 115.811 132.14 115.076 132.984C114.506 133.639 112.938 135.229 110.532 134.94C108.078 134.645 106.97 132.677 106.617 131.95C106.16 131.009 105.895 129.939 105.718 128.988C105.018 125.215 104.969 118.884 105.138 112.513C105.31 105.999 105.728 98.9829 106.092 93.594C106.258 91.1424 106.413 89.0186 106.529 87.4287L106.529 87.4277L106.562 86.9658C106.582 86.6911 106.601 86.437 106.618 86.2039L105.351 84.9899L105.105 84.7862C104.871 84.5926 104.53 84.3097 104.1 83.951C103.24 83.2337 102.02 82.2124 100.581 80.9938C97.7049 78.5597 93.9356 75.3253 90.3921 72.1492C86.8898 69.01 83.469 65.805 81.3784 63.4671C80.848 62.874 80.3501 62.2783 79.941 61.7118C79.5968 61.2353 79.0627 60.4435 78.7834 59.5121C78.6443 59.0481 78.4277 58.1012 78.7331 56.9867C79.1053 55.6286 80.0753 54.6482 81.2111 54.1719C82.1443 53.7806 83.0016 53.7997 83.456 53.837C83.9674 53.879 84.4364 53.9881 84.8153 54.0963C85.5103 54.2949 86.2299 54.5735 86.9636 54.9147L184.948 47.7408L185.315 47.7139L185.679 47.7639L240.874 55.3324L241.258 53.2347L284.629 61.1738L284.571 61.0187C283.909 59.2381 283.196 57.5168 282.414 56.0431C281.603 54.5149 280.89 53.5829 280.361 53.1136L287.663 44.8865C289.606 46.611 291.052 48.853 292.131 50.8887C293.24 52.979 294.148 55.2116 294.882 57.185C295.337 58.4099 295.791 59.7233 296.167 60.8083L296.167 60.8101L296.169 60.8163L296.171 60.8198L296.173 60.8266C296.368 61.3904 296.542 61.8918 296.682 62.2858C296.922 62.9551 297.087 63.3796 297.2 63.631L297.217 63.6685L297.228 63.6938C297.236 63.7097 297.24 63.7184 297.241 63.7209L297.242 63.7211C297.24 63.7182 297.233 63.7041 297.219 63.6807C297.216 63.6753 297.213 63.6695 297.209 63.6632L297.201 63.6494L297.199 63.6461ZM239.268 62.1777C237.663 63.6205 237.663 63.6206 237.663 63.6207L237.664 63.6213L237.666 63.6238L237.675 63.6338L237.71 63.6734L237.851 63.8296L238.393 64.4329C238.865 64.9583 239.55 65.7214 240.404 66.6724C242.111 68.5744 244.492 71.2274 247.182 74.2312C252.566 80.2413 259.184 87.6468 264.146 93.2516C266.134 95.4977 267.926 99.1746 269.406 103.956C270.856 108.641 271.867 113.921 272.563 118.963C272.923 121.571 273.194 124.084 273.398 126.375C273.235 126.278 273.069 126.18 272.902 126.082C266.84 122.505 258.405 117.815 248.93 113.375C239.471 108.943 228.879 104.716 218.517 102.117C208.329 99.5624 197.976 98.4814 189.037 100.665C188.907 100.68 188.731 100.699 188.514 100.724C188.001 100.783 187.251 100.872 186.296 100.99C184.386 101.226 181.656 101.58 178.356 102.056C171.763 103.007 162.869 104.449 153.706 106.406C144.572 108.357 135.03 110.85 127.202 113.936C123.289 115.479 119.684 117.216 116.734 119.18C115.442 120.041 114.211 120.988 113.115 122.033C113.029 119.388 113.043 116.199 113.135 112.725C113.303 106.374 113.713 99.485 114.074 94.1328C114.238 91.7041 114.391 89.6007 114.507 88.0105L114.507 88.0097L114.541 87.5471C114.6 86.7348 114.648 86.0691 114.68 85.5991C114.695 85.3673 114.708 85.1595 114.715 84.997C114.719 84.9206 114.723 84.8187 114.725 84.7157C114.726 84.6687 114.726 84.5751 114.722 84.4629C114.72 84.4083 114.715 84.3063 114.701 84.1803L114.701 84.1743C114.693 84.0984 114.658 83.7659 114.529 83.3675C113.739 80.9235 111.86 78.0574 109.771 75.3531C107.593 72.5343 104.87 69.4916 102.005 66.6314C100.117 64.7471 98.1416 62.9149 96.1888 61.258L182.201 54.9607L185.261 76.3835L192.191 75.3936L189.325 55.3293L239.268 62.1777ZM109.042 127.731C108.993 127.788 108.997 127.772 109.055 127.716C109.05 127.722 109.046 127.727 109.042 127.731Z" fill="url(#paint1_linear_118_29)"/>
<path d="M81.7598 64.7638C84.9339 64.7638 87.507 62.1907 87.507 59.0167C87.507 55.8426 84.9339 53.2695 81.7598 53.2695C78.5858 53.2695 76.0127 55.8426 76.0127 59.0167C76.0127 62.1907 78.5858 64.7638 81.7598 64.7638Z" fill="#F9B438"/>
<path d="M294.218 75.1452C297.802 75.1452 300.707 72.2401 300.707 68.6565C300.707 65.0728 297.802 62.1677 294.218 62.1677C290.635 62.1677 287.729 65.0728 287.729 68.6565C287.729 72.2401 290.635 75.1452 294.218 75.1452Z" fill="#F8722D"/>
<path d="M110.865 136.696C113.527 136.696 115.685 134.538 115.685 131.876C115.685 129.214 113.527 127.056 110.865 127.056C108.202 127.056 106.044 129.214 106.044 131.876C106.044 134.538 108.202 136.696 110.865 136.696Z" fill="#F99733"/>
<path d="M184.652 55.4944C187.314 55.4944 189.472 53.3363 189.472 50.6742C189.472 48.0121 187.314 45.854 184.652 45.854C181.99 45.854 179.832 48.0121 179.832 50.6742C179.832 53.3363 181.99 55.4944 184.652 55.4944Z" fill="#F8AD38"/>
<path d="M241.937 66.247C245.521 66.247 248.426 63.3419 248.426 59.7583C248.426 56.1746 245.521 53.2695 241.937 53.2695C238.354 53.2695 235.449 56.1746 235.449 59.7583C235.449 63.3419 238.354 66.247 241.937 66.247Z" fill="#EE7A2D"/>
<path d="M281.501 52.9775C285.085 52.9775 287.99 50.0723 287.99 46.4887C287.99 42.9051 285.085 40 281.501 40C277.917 40 275.012 42.9051 275.012 46.4887C275.012 50.0723 277.917 52.9775 281.501 52.9775Z" fill="#F97C36"/>
<path d="M189.474 86.6409C194.388 86.6409 198.372 82.6568 198.372 77.7421C198.372 72.8274 194.388 68.8433 189.474 68.8433C184.559 68.8433 180.575 72.8274 180.575 77.7421C180.575 82.6568 184.559 86.6409 189.474 86.6409Z" fill="url(#paint2_linear_118_29)"/>
<path d="M279.513 143C282.55 143 285.013 140.538 285.013 137.5C285.013 134.462 282.55 132 279.513 132C276.475 132 274.013 134.462 274.013 137.5C274.013 140.538 276.475 143 279.513 143Z" fill="#F8652A"/>
<path d="M188.951 118.876C194.992 118.876 199.889 113.979 199.889 107.938C199.889 101.897 194.992 97 188.951 97C182.91 97 178.013 101.897 178.013 107.938C178.013 113.979 182.91 118.876 188.951 118.876Z" fill="#F88C31"/>
<path d="M54.6442 55.702C49.2534 52.1396 42.7941 50.5567 36.3671 51.2228C29.94 51.889 23.9427 54.7631 19.3972 59.3554C14.8516 63.9476 12.039 69.9739 11.4386 76.4075C10.8382 82.841 12.4871 89.2838 16.1043 94.6379C19.7216 99.9919 25.0835 103.926 31.2763 105.77C37.4691 107.614 44.1096 107.254 50.0665 104.75C56.0234 102.247 60.9281 97.7558 63.9447 92.0417C66.9613 86.3276 67.9034 79.7443 66.6103 73.4135C65.8857 69.8168 64.455 66.3994 62.401 63.3592C60.347 60.3191 57.7104 57.7164 54.6439 55.7019L54.6442 55.702ZM43.8185 101.375C40.8809 101.983 37.8519 102.003 34.9067 101.433C31.9616 100.863 29.1586 99.7148 26.66 98.0547C22.2537 95.1428 18.9934 90.7933 17.4345 85.7471C15.8756 80.7009 16.1145 75.2703 18.1106 70.3805C20.1066 65.4908 23.7364 61.4444 28.3813 58.9307C33.0263 56.417 38.3991 55.5917 43.5844 56.5952C48.7697 57.5987 53.4466 60.3691 56.8183 64.4342C60.1901 68.4994 62.048 73.6079 62.0756 78.8893C62.1032 84.1707 60.2988 89.2983 56.9697 93.3985C53.6407 97.4987 48.993 100.318 43.8185 101.375V101.375ZM58.0838 75.1576C57.3224 71.4351 55.4745 68.0219 52.7735 65.3495C50.0725 62.6772 46.6398 60.8657 42.9094 60.1441C39.179 59.4225 35.3183 59.8232 31.8156 61.2955C28.3129 62.7678 25.3254 65.2457 23.2308 68.4157C21.1361 71.5858 20.0285 75.3057 20.0478 79.1053C20.0672 82.9048 21.2127 86.6133 23.3395 89.7618C25.4663 92.9104 28.479 95.3576 31.9965 96.7942C35.514 98.2307 39.3785 98.592 43.1014 97.8324C45.5818 97.3426 47.9403 96.365 50.0398 94.9563C52.1394 93.5477 53.9383 91.7361 55.3321 89.6266C56.7258 87.5172 57.6868 85.1519 58.1591 82.6681C58.6315 80.1843 58.6058 77.6314 58.0836 75.1576L58.0838 75.1576ZM49.2725 82.9325C49.1501 83.3958 48.8488 83.7915 48.4348 84.0328C48.0208 84.2741 47.5279 84.3412 47.0645 84.2194L39.0796 82.1129C39.0199 82.0972 38.961 82.0785 38.9032 82.0568L38.8762 82.0544C38.8129 82.0292 38.7509 82.0004 38.6908 81.9681L38.6406 81.9409C38.5759 81.9039 38.5135 81.8628 38.454 81.8179L38.4387 81.8166L26.2685 72.591C25.8992 72.2969 25.6595 71.87 25.6007 71.4015C25.5419 70.9331 25.6686 70.4602 25.9538 70.0839C26.239 69.7076 26.66 69.4578 27.1269 69.3877C27.5938 69.3177 28.0696 69.4331 28.4526 69.7091L40.3315 78.7076L47.9765 80.7236C48.2062 80.7839 48.4218 80.8889 48.6109 81.0326C48.8 81.1763 48.959 81.3558 49.0788 81.5609C49.1986 81.766 49.2768 81.9927 49.3089 82.228C49.3411 82.4633 49.3266 82.7027 49.2662 82.9324L49.2725 82.9325ZM86.5778 69.3351C88.1287 76.9281 88.5781 84.2434 87.8395 89.9398C87.09 95.7262 85.3413 98.0922 83.9553 98.3753C82.5692 98.6584 80.0333 97.1692 77.0725 92.1399C74.1614 87.1901 71.7045 80.2825 70.1445 72.6911C66.6814 55.7383 69.3388 44.3507 72.7667 43.651C76.1953 42.9514 83.1153 52.3801 86.578 69.3351L86.5778 69.3351ZM82.774 48.0619C82.0296 46.7756 81.1902 45.5467 80.2629 44.3853C82.1936 45.2294 84.0047 46.604 85.6962 48.509C89.514 52.8164 92.4608 59.7777 93.7891 67.6056C95.0853 75.2851 94.7168 83.0083 92.7874 88.7985C92.3353 90.1556 91.7509 91.4649 91.0426 92.7076C91.1843 91.9916 91.3101 91.2269 91.4183 90.401C92.2043 84.3209 91.7409 76.5889 90.1127 68.6081C88.4844 60.6273 85.8841 53.3354 82.7745 48.0618L82.774 48.0619ZM81.4361 5.5169L77.7657 5.19723L77.7633 5.22443C77.8216 5.47097 77.8304 5.72663 77.7891 5.97659C77.7478 6.22654 77.6574 6.46582 77.5229 6.68056C77.3887 6.89696 77.2125 7.0844 77.0049 7.23189C76.7973 7.37937 76.5623 7.48395 76.3138 7.53949C75.816 7.65441 75.293 7.56735 74.8593 7.29739C74.4257 7.02743 74.1167 6.59658 74.0001 6.09924L73.726 4.84539L69.9361 4.51531L70.4959 6.91943C70.5108 6.98432 70.5327 7.04542 70.5501 7.10788C69.4627 7.48776 68.5221 8.19961 67.8611 9.1429L65.0116 13.2056C64.5422 13.8743 64.2268 14.6387 64.0883 15.4439C63.5069 15.3945 62.9214 15.437 62.3532 15.5697L57.9528 16.5977C57.7474 15.5999 57.2692 14.6786 56.5714 13.9363L53.177 10.3169C52.6807 9.7835 52.0835 9.35391 51.4199 9.05307C50.7564 8.75222 50.0397 8.58611 49.3115 8.56435C49.0921 8.55728 48.8726 8.56305 48.654 8.58163C48.4323 7.38934 47.8265 6.30238 46.929 5.48678C46.0315 4.67118 44.8917 4.17176 43.6837 4.06482L38.7451 3.6347C37.422 3.52145 36.1021 3.88626 35.0249 4.66294C33.9478 5.43963 33.1847 6.57671 32.8742 7.86788C32.4862 7.80533 32.0927 7.78391 31.7002 7.804C30.9726 7.83946 30.2592 8.01889 29.6014 8.33192C28.9436 8.64494 28.3544 9.08534 27.8679 9.62762L24.5454 13.3088C23.6205 14.3367 23.1126 15.6728 23.121 17.0556C23.1294 18.4383 23.6535 19.7681 24.5908 20.7847C24.0137 21.4284 23.5952 22.1983 23.3689 23.0327C23.1425 23.8671 23.1146 24.7429 23.2874 25.59L24.2803 30.4412C24.519 31.6127 25.1322 32.6749 26.0272 33.4676C25.1607 34.4451 24.5829 35.6441 24.3583 36.9309C24.1337 38.2176 24.2711 39.5415 24.7551 40.7547C25.2392 41.9679 26.0509 43.0227 27.0996 43.8014C28.1484 44.5801 29.3929 45.052 30.6942 45.1645L30.9532 45.187L31.6102 48.4003C32.0487 48.2905 32.4895 48.1897 32.9322 48.098C33.6373 47.9539 34.3427 47.8347 35.0484 47.7403L34.3852 44.4903C35.5557 43.9228 36.5463 43.0423 37.2473 41.9464C37.9482 40.8506 38.3322 39.5821 38.3567 38.2814C38.3812 36.9808 38.0452 35.6988 37.386 34.5773C36.7268 33.4558 35.77 32.5387 34.6217 31.9275C35.2236 30.7944 35.4121 29.4871 35.1546 28.2302L34.1615 23.3788C33.9607 22.3875 33.4911 21.4706 32.8041 20.7283L36.1118 17.062C36.7314 16.3766 37.1688 15.5464 37.3836 14.6477C37.5185 14.6595 37.6547 14.6871 37.792 14.6991L42.7327 15.1294C43.0498 15.1565 43.3686 15.1562 43.6857 15.1287C43.8759 16.1725 44.3638 17.1391 45.0904 17.9122L48.461 21.5208C49.3938 22.5187 50.6633 23.1355 52.0243 23.2519C52.4644 23.2894 52.9074 23.2745 53.3441 23.2076C53.3532 23.2584 53.3626 23.3068 53.3742 23.3578C53.6402 24.4954 54.2582 25.5201 55.1402 26.2862C56.0223 27.0523 57.1234 27.5206 58.2871 27.6247C58.8716 27.6746 59.4604 27.6316 60.0315 27.4976L64.8599 26.3731C65.9231 26.126 66.8898 25.5711 67.6393 24.7776C68.3888 23.9841 68.8877 22.9873 69.0737 21.9118C69.5559 21.9522 70.0414 21.9296 70.5178 21.8446C71.2354 21.7198 71.921 21.4539 72.5351 21.0622C73.1491 20.6705 73.6794 20.1609 74.0951 19.5629L76.9449 15.5003C77.4082 14.8366 77.7202 14.0793 77.859 13.2818C77.9978 12.4844 77.9599 11.6662 77.7481 10.8849C78.8495 10.4921 79.7989 9.76181 80.4611 8.79798C81.1233 7.83415 81.4645 6.68595 81.4361 5.5169ZM27.8236 29.7241L26.8304 24.8729C26.7731 24.6049 26.7741 24.3277 26.8334 24.0601C26.8927 23.7925 27.0089 23.5408 27.1741 23.3221C27.3393 23.1034 27.5496 22.9228 27.7908 22.7926C28.032 22.6624 28.2984 22.5857 28.5718 22.5675C28.6619 22.5754 28.7532 22.5695 28.8442 22.5662L28.8847 22.5698C29.2987 22.606 29.6898 22.7749 30.0001 23.0512C30.3104 23.3276 30.5233 23.6967 30.6071 24.1037L31.6004 28.9549C31.6951 29.4177 31.6164 29.8992 31.3792 30.3078C31.1421 30.7164 30.7629 31.0235 30.3141 31.1708C30.1742 31.1904 30.0334 31.2143 29.8925 31.243L29.7997 31.2643C29.3418 31.2835 28.892 31.139 28.5309 30.8569C28.1697 30.5748 27.9207 30.1734 27.8283 29.7245L27.8236 29.7241ZM31.6041 34.7251C32.4685 34.7908 33.2769 35.1778 33.87 35.8099C34.4632 36.442 34.7981 37.2734 34.8087 38.1401C34.8193 39.0069 34.5049 39.8462 33.9274 40.4927C33.3499 41.1391 32.5512 41.5458 31.6887 41.6326C30.8262 41.7194 29.9625 41.48 29.2678 40.9616C28.5731 40.4431 28.0977 39.6833 27.9354 38.8318C27.7731 37.9803 27.9357 37.0989 28.391 36.3613C28.8463 35.6236 29.5614 35.0833 30.3953 34.8468C30.5381 34.8289 30.6801 34.8057 30.821 34.7771L30.9992 34.7356C31.2014 34.7141 31.4052 34.7107 31.608 34.7255L31.6041 34.7251ZM33.4065 14.6276L30.0951 18.3119C29.7709 18.6715 29.3226 18.8951 28.8404 18.9378C28.7322 18.9284 28.6136 18.9363 28.5112 18.9409C28.153 18.9126 27.8099 18.7845 27.5207 18.5714C27.2314 18.3582 27.0076 18.0683 26.8745 17.7345C26.7414 17.4008 26.7043 17.0364 26.7674 16.6827C26.8306 16.329 26.9914 15.9999 27.2318 15.7328L30.5539 12.0516C30.716 11.8405 30.92 11.6651 31.1531 11.5367C31.3862 11.4083 31.6434 11.3295 31.9085 11.3053C32.1736 11.2812 32.4408 11.3122 32.6933 11.3964C32.9458 11.4806 33.1781 11.6161 33.3757 11.7945C33.5732 11.9729 33.7317 12.1903 33.8411 12.433C33.9505 12.6756 34.0084 12.9383 34.0113 13.2044C34.0142 13.4706 33.962 13.7345 33.8579 13.9794C33.7538 14.2244 33.6001 14.4452 33.4065 14.6278L33.4065 14.6276ZM44.8521 10.5739C44.7524 10.6953 44.6577 10.8193 44.568 10.946C44.3692 11.1487 44.128 11.305 43.8616 11.4034C43.5953 11.5019 43.3104 11.5402 43.0275 11.5156L38.0961 11.0861C37.8382 11.0719 37.5857 11.006 37.3537 10.8923C37.1216 10.7786 36.9148 10.6195 36.7456 10.4243C36.5763 10.2291 36.4479 10.0019 36.3682 9.75613C36.2884 9.51038 36.2589 9.2511 36.2813 8.99371C36.3037 8.73631 36.3776 8.48605 36.4987 8.25778C36.6197 8.02952 36.7854 7.82791 36.9859 7.66494C37.1864 7.50196 37.4176 7.38095 37.6657 7.30908C37.9139 7.23721 38.174 7.21596 38.4305 7.24659L43.3709 7.67686C43.6953 7.70469 44.0074 7.81442 44.2778 7.99577C44.5483 8.17712 44.7682 8.42415 44.9172 8.71373C45.0661 9.00331 45.139 9.32595 45.1292 9.65143C45.1194 9.97691 45.0271 10.2946 44.8611 10.5746L44.8521 10.5739ZM53.8264 19.1379C53.4539 19.4849 52.9593 19.6703 52.4506 19.6536C51.9418 19.637 51.4604 19.4196 51.1115 19.049L47.7236 15.4301C47.44 15.1266 47.2621 14.7395 47.2162 14.3266C47.1704 13.9138 47.2592 13.4971 47.4693 13.1388C47.5625 13.0259 47.6483 12.9093 47.7269 12.7891C47.7517 12.7639 47.7745 12.7363 47.8016 12.7115C48.1746 12.3655 48.6691 12.1808 49.1776 12.1975C49.6861 12.2142 50.1674 12.431 50.5169 12.8006L53.9064 16.4218C54.2566 16.7917 54.446 17.2853 54.4331 17.7945C54.4202 18.3038 54.2061 18.7871 53.8377 19.1389L53.8264 19.1379ZM65.2421 21.9927C65.1078 22.2091 64.9316 22.3965 64.7239 22.5439C64.5163 22.6914 64.2813 22.7959 64.0327 22.8514L59.2221 23.9798C58.9732 24.0444 58.7138 24.0585 58.4594 24.0213C58.2049 23.9841 57.9604 23.8964 57.7404 23.7632C57.5203 23.6301 57.3291 23.4543 57.178 23.2462C57.0269 23.0381 56.919 22.8019 56.8606 22.5514C56.8022 22.3009 56.7945 22.0413 56.838 21.7878C56.8814 21.5343 56.9751 21.2921 57.1136 21.0754C57.2521 20.8587 57.4325 20.6719 57.6443 20.5259C57.8561 20.38 58.0949 20.278 58.3468 20.2257L63.1776 19.1012C63.5486 19.0153 63.9368 19.0412 64.2931 19.1757C64.6494 19.3101 64.9579 19.5471 65.1797 19.8567C65.4015 20.1663 65.5267 20.5346 65.5394 20.9153C65.5521 21.2959 65.4517 21.6717 65.2511 21.9954L65.2421 21.9927ZM73.9718 13.4321L71.1222 17.495C70.8284 17.9123 70.3811 18.1961 69.8783 18.2841C69.3756 18.3722 68.8584 18.2572 68.4403 17.9646C68.0221 17.6719 67.7371 17.2254 67.6476 16.7229C67.5582 16.2203 67.6717 15.7029 67.9632 15.2839L70.8127 11.2213C71.1059 10.8012 71.554 10.5148 72.0584 10.4251C72.5628 10.3354 73.0822 10.4497 73.5022 10.7429C73.9223 11.0362 74.2087 11.4843 74.2984 11.9886C74.3881 12.493 74.2738 13.0124 73.9805 13.4325L73.9718 13.4321Z" fill="black"/>
<path d="M54.6442 55.702C49.2534 52.1396 42.7941 50.5567 36.3671 51.2228C29.94 51.889 23.9427 54.7631 19.3972 59.3554C14.8516 63.9476 12.039 69.9739 11.4386 76.4075C10.8382 82.841 12.4871 89.2838 16.1043 94.6379C19.7216 99.9919 25.0835 103.926 31.2763 105.77C37.4691 107.614 44.1096 107.254 50.0665 104.75C56.0234 102.247 60.9281 97.7558 63.9447 92.0417C66.9613 86.3276 67.9034 79.7443 66.6103 73.4135C65.8857 69.8168 64.455 66.3994 62.401 63.3592C60.347 60.3191 57.7104 57.7164 54.6439 55.7019L54.6442 55.702ZM43.8185 101.375C40.8809 101.983 37.8519 102.003 34.9067 101.433C31.9616 100.863 29.1586 99.7148 26.66 98.0547C22.2537 95.1428 18.9934 90.7933 17.4345 85.7471C15.8756 80.7009 16.1145 75.2703 18.1106 70.3805C20.1066 65.4908 23.7364 61.4444 28.3813 58.9307C33.0263 56.417 38.3991 55.5917 43.5844 56.5952C48.7697 57.5987 53.4466 60.3691 56.8183 64.4342C60.1901 68.4994 62.048 73.6079 62.0756 78.8893C62.1032 84.1707 60.2988 89.2983 56.9697 93.3985C53.6407 97.4987 48.993 100.318 43.8185 101.375V101.375ZM58.0838 75.1576C57.3224 71.4351 55.4745 68.0219 52.7735 65.3495C50.0725 62.6772 46.6398 60.8657 42.9094 60.1441C39.179 59.4225 35.3183 59.8232 31.8156 61.2955C28.3129 62.7678 25.3254 65.2457 23.2308 68.4157C21.1361 71.5858 20.0285 75.3057 20.0478 79.1053C20.0672 82.9048 21.2127 86.6133 23.3395 89.7618C25.4663 92.9104 28.479 95.3576 31.9965 96.7942C35.514 98.2307 39.3785 98.592 43.1014 97.8324C45.5818 97.3426 47.9403 96.365 50.0398 94.9563C52.1394 93.5477 53.9383 91.7361 55.3321 89.6266C56.7258 87.5172 57.6868 85.1519 58.1591 82.6681C58.6315 80.1843 58.6058 77.6314 58.0836 75.1576L58.0838 75.1576ZM49.2725 82.9325C49.1501 83.3958 48.8488 83.7915 48.4348 84.0328C48.0208 84.2741 47.5279 84.3412 47.0645 84.2194L39.0796 82.1129C39.0199 82.0972 38.961 82.0785 38.9032 82.0568L38.8762 82.0544C38.8129 82.0292 38.7509 82.0004 38.6908 81.9681L38.6406 81.9409C38.5759 81.9039 38.5135 81.8628 38.454 81.8179L38.4387 81.8166L26.2685 72.591C25.8992 72.2969 25.6595 71.87 25.6007 71.4015C25.5419 70.9331 25.6686 70.4602 25.9538 70.0839C26.239 69.7076 26.66 69.4578 27.1269 69.3877C27.5938 69.3177 28.0696 69.4331 28.4526 69.7091L40.3315 78.7076L47.9765 80.7236C48.2062 80.7839 48.4218 80.8889 48.6109 81.0326C48.8 81.1763 48.959 81.3558 49.0788 81.5609C49.1986 81.766 49.2768 81.9927 49.3089 82.228C49.3411 82.4633 49.3266 82.7027 49.2662 82.9324L49.2725 82.9325ZM86.5778 69.3351C88.1287 76.9281 88.5781 84.2434 87.8395 89.9398C87.09 95.7262 85.3413 98.0922 83.9553 98.3753C82.5692 98.6584 80.0333 97.1692 77.0725 92.1399C74.1614 87.1901 71.7045 80.2825 70.1445 72.6911C66.6814 55.7383 69.3388 44.3507 72.7667 43.651C76.1953 42.9514 83.1153 52.3801 86.578 69.3351L86.5778 69.3351ZM82.774 48.0619C82.0296 46.7756 81.1902 45.5467 80.2629 44.3853C82.1936 45.2294 84.0047 46.604 85.6962 48.509C89.514 52.8164 92.4608 59.7777 93.7891 67.6056C95.0853 75.2851 94.7168 83.0083 92.7874 88.7985C92.3353 90.1556 91.7509 91.4649 91.0426 92.7076C91.1843 91.9916 91.3101 91.2269 91.4183 90.401C92.2043 84.3209 91.7409 76.5889 90.1127 68.6081C88.4844 60.6273 85.8841 53.3354 82.7745 48.0618L82.774 48.0619ZM81.4361 5.5169L77.7657 5.19723L77.7633 5.22443C77.8216 5.47097 77.8304 5.72663 77.7891 5.97659C77.7478 6.22654 77.6574 6.46582 77.5229 6.68056C77.3887 6.89696 77.2125 7.0844 77.0049 7.23189C76.7973 7.37937 76.5623 7.48395 76.3138 7.53949C75.816 7.65441 75.293 7.56735 74.8593 7.29739C74.4257 7.02743 74.1167 6.59658 74.0001 6.09924L73.726 4.84539L69.9361 4.51531L70.4959 6.91943C70.5108 6.98432 70.5327 7.04542 70.5501 7.10788C69.4627 7.48776 68.5221 8.19961 67.8611 9.1429L65.0116 13.2056C64.5422 13.8743 64.2268 14.6387 64.0883 15.4439C63.5069 15.3945 62.9214 15.437 62.3532 15.5697L57.9528 16.5977C57.7474 15.5999 57.2692 14.6786 56.5714 13.9363L53.177 10.3169C52.6807 9.7835 52.0835 9.35391 51.4199 9.05307C50.7564 8.75222 50.0397 8.58611 49.3115 8.56435C49.0921 8.55728 48.8726 8.56305 48.654 8.58163C48.4323 7.38934 47.8265 6.30238 46.929 5.48678C46.0315 4.67118 44.8917 4.17176 43.6837 4.06482L38.7451 3.6347C37.422 3.52145 36.1021 3.88626 35.0249 4.66294C33.9478 5.43963 33.1847 6.57671 32.8742 7.86788C32.4862 7.80533 32.0927 7.78391 31.7002 7.804C30.9726 7.83946 30.2592 8.01889 29.6014 8.33192C28.9436 8.64494 28.3544 9.08534 27.8679 9.62762L24.5454 13.3088C23.6205 14.3367 23.1126 15.6728 23.121 17.0556C23.1294 18.4383 23.6535 19.7681 24.5908 20.7847C24.0137 21.4284 23.5952 22.1983 23.3689 23.0327C23.1425 23.8671 23.1146 24.7429 23.2874 25.59L24.2803 30.4412C24.519 31.6127 25.1322 32.6749 26.0272 33.4676C25.1607 34.4451 24.5829 35.6441 24.3583 36.9309C24.1337 38.2176 24.2711 39.5415 24.7551 40.7547C25.2392 41.9679 26.0509 43.0227 27.0996 43.8014C28.1484 44.5801 29.3929 45.052 30.6942 45.1645L30.9532 45.187L31.6102 48.4003C32.0487 48.2905 32.4895 48.1897 32.9322 48.098C33.6373 47.9539 34.3427 47.8347 35.0484 47.7403L34.3852 44.4903C35.5557 43.9228 36.5463 43.0423 37.2473 41.9464C37.9482 40.8506 38.3322 39.5821 38.3567 38.2814C38.3812 36.9808 38.0452 35.6988 37.386 34.5773C36.7268 33.4558 35.77 32.5387 34.6217 31.9275C35.2236 30.7944 35.4121 29.4871 35.1546 28.2302L34.1615 23.3788C33.9607 22.3875 33.4911 21.4706 32.8041 20.7283L36.1118 17.062C36.7314 16.3766 37.1688 15.5464 37.3836 14.6477C37.5185 14.6595 37.6547 14.6871 37.792 14.6991L42.7327 15.1294C43.0498 15.1565 43.3686 15.1562 43.6857 15.1287C43.8759 16.1725 44.3638 17.1391 45.0904 17.9122L48.461 21.5208C49.3938 22.5187 50.6633 23.1355 52.0243 23.2519C52.4644 23.2894 52.9074 23.2745 53.3441 23.2076C53.3532 23.2584 53.3626 23.3068 53.3742 23.3578C53.6402 24.4954 54.2582 25.5201 55.1402 26.2862C56.0223 27.0523 57.1234 27.5206 58.2871 27.6247C58.8716 27.6746 59.4604 27.6316 60.0315 27.4976L64.8599 26.3731C65.9231 26.126 66.8898 25.5711 67.6393 24.7776C68.3888 23.9841 68.8877 22.9873 69.0737 21.9118C69.5559 21.9522 70.0414 21.9296 70.5178 21.8446C71.2354 21.7198 71.921 21.4539 72.5351 21.0622C73.1491 20.6705 73.6794 20.1609 74.0951 19.5629L76.9449 15.5003C77.4082 14.8366 77.7202 14.0793 77.859 13.2818C77.9978 12.4844 77.9599 11.6662 77.7481 10.8849C78.8495 10.4921 79.7989 9.76181 80.4611 8.79798C81.1233 7.83415 81.4645 6.68595 81.4361 5.5169ZM27.8236 29.7241L26.8304 24.8729C26.7731 24.6049 26.7741 24.3277 26.8334 24.0601C26.8927 23.7925 27.0089 23.5408 27.1741 23.3221C27.3393 23.1034 27.5496 22.9228 27.7908 22.7926C28.032 22.6624 28.2984 22.5857 28.5718 22.5675C28.6619 22.5754 28.7532 22.5695 28.8442 22.5662L28.8847 22.5698C29.2987 22.606 29.6898 22.7749 30.0001 23.0512C30.3104 23.3276 30.5233 23.6967 30.6071 24.1037L31.6004 28.9549C31.6951 29.4177 31.6164 29.8992 31.3792 30.3078C31.1421 30.7164 30.7629 31.0235 30.3141 31.1708C30.1742 31.1904 30.0334 31.2143 29.8925 31.243L29.7997 31.2643C29.3418 31.2835 28.892 31.139 28.5309 30.8569C28.1697 30.5748 27.9207 30.1734 27.8283 29.7245L27.8236 29.7241ZM31.6041 34.7251C32.4685 34.7908 33.2769 35.1778 33.87 35.8099C34.4632 36.442 34.7981 37.2734 34.8087 38.1401C34.8193 39.0069 34.5049 39.8462 33.9274 40.4927C33.3499 41.1391 32.5512 41.5458 31.6887 41.6326C30.8262 41.7194 29.9625 41.48 29.2678 40.9616C28.5731 40.4431 28.0977 39.6833 27.9354 38.8318C27.7731 37.9803 27.9357 37.0989 28.391 36.3613C28.8463 35.6236 29.5614 35.0833 30.3953 34.8468C30.5381 34.8289 30.6801 34.8057 30.821 34.7771L30.9992 34.7356C31.2014 34.7141 31.4052 34.7107 31.608 34.7255L31.6041 34.7251ZM33.4065 14.6276L30.0951 18.3119C29.7709 18.6715 29.3226 18.8951 28.8404 18.9378C28.7322 18.9284 28.6136 18.9363 28.5112 18.9409C28.153 18.9126 27.8099 18.7845 27.5207 18.5714C27.2314 18.3582 27.0076 18.0683 26.8745 17.7345C26.7414 17.4008 26.7043 17.0364 26.7674 16.6827C26.8306 16.329 26.9914 15.9999 27.2318 15.7328L30.5539 12.0516C30.716 11.8405 30.92 11.6651 31.1531 11.5367C31.3862 11.4083 31.6434 11.3295 31.9085 11.3053C32.1736 11.2812 32.4408 11.3122 32.6933 11.3964C32.9458 11.4806 33.1781 11.6161 33.3757 11.7945C33.5732 11.9729 33.7317 12.1903 33.8411 12.433C33.9505 12.6756 34.0084 12.9383 34.0113 13.2044C34.0142 13.4706 33.962 13.7345 33.8579 13.9794C33.7538 14.2244 33.6001 14.4452 33.4065 14.6278L33.4065 14.6276ZM44.8521 10.5739C44.7524 10.6953 44.6577 10.8193 44.568 10.946C44.3692 11.1487 44.128 11.305 43.8616 11.4034C43.5953 11.5019 43.3104 11.5402 43.0275 11.5156L38.0961 11.0861C37.8382 11.0719 37.5857 11.006 37.3537 10.8923C37.1216 10.7786 36.9148 10.6195 36.7456 10.4243C36.5763 10.2291 36.4479 10.0019 36.3682 9.75613C36.2884 9.51038 36.2589 9.2511 36.2813 8.99371C36.3037 8.73631 36.3776 8.48605 36.4987 8.25778C36.6197 8.02952 36.7854 7.82791 36.9859 7.66494C37.1864 7.50196 37.4176 7.38095 37.6657 7.30908C37.9139 7.23721 38.174 7.21596 38.4305 7.24659L43.3709 7.67686C43.6953 7.70469 44.0074 7.81442 44.2778 7.99577C44.5483 8.17712 44.7682 8.42415 44.9172 8.71373C45.0661 9.00331 45.139 9.32595 45.1292 9.65143C45.1194 9.97691 45.0271 10.2946 44.8611 10.5746L44.8521 10.5739ZM53.8264 19.1379C53.4539 19.4849 52.9593 19.6703 52.4506 19.6536C51.9418 19.637 51.4604 19.4196 51.1115 19.049L47.7236 15.4301C47.44 15.1266 47.2621 14.7395 47.2162 14.3266C47.1704 13.9138 47.2592 13.4971 47.4693 13.1388C47.5625 13.0259 47.6483 12.9093 47.7269 12.7891C47.7517 12.7639 47.7745 12.7363 47.8016 12.7115C48.1746 12.3655 48.6691 12.1808 49.1776 12.1975C49.6861 12.2142 50.1674 12.431 50.5169 12.8006L53.9064 16.4218C54.2566 16.7917 54.446 17.2853 54.4331 17.7945C54.4202 18.3038 54.2061 18.7871 53.8377 19.1389L53.8264 19.1379ZM65.2421 21.9927C65.1078 22.2091 64.9316 22.3965 64.7239 22.5439C64.5163 22.6914 64.2813 22.7959 64.0327 22.8514L59.2221 23.9798C58.9732 24.0444 58.7138 24.0585 58.4594 24.0213C58.2049 23.9841 57.9604 23.8964 57.7404 23.7632C57.5203 23.6301 57.3291 23.4543 57.178 23.2462C57.0269 23.0381 56.919 22.8019 56.8606 22.5514C56.8022 22.3009 56.7945 22.0413 56.838 21.7878C56.8814 21.5343 56.9751 21.2921 57.1136 21.0754C57.2521 20.8587 57.4325 20.6719 57.6443 20.5259C57.8561 20.38 58.0949 20.278 58.3468 20.2257L63.1776 19.1012C63.5486 19.0153 63.9368 19.0412 64.2931 19.1757C64.6494 19.3101 64.9579 19.5471 65.1797 19.8567C65.4015 20.1663 65.5267 20.5346 65.5394 20.9153C65.5521 21.2959 65.4517 21.6717 65.2511 21.9954L65.2421 21.9927ZM73.9718 13.4321L71.1222 17.495C70.8284 17.9123 70.3811 18.1961 69.8783 18.2841C69.3756 18.3722 68.8584 18.2572 68.4403 17.9646C68.0221 17.6719 67.7371 17.2254 67.6476 16.7229C67.5582 16.2203 67.6717 15.7029 67.9632 15.2839L70.8127 11.2213C71.1059 10.8012 71.554 10.5148 72.0584 10.4251C72.5628 10.3354 73.0822 10.4497 73.5022 10.7429C73.9223 11.0362 74.2087 11.4843 74.2984 11.9886C74.3881 12.493 74.2738 13.0124 73.9805 13.4325L73.9718 13.4321Z" fill="url(#paint3_linear_118_29)"/>
</g>
<ellipse cx="146" cy="54.5" rx="14" ry="14.5" fill="#D9D9D9"/>
<ellipse cx="143.276" cy="55.5" rx="6.27586" ry="6.5" fill="black"/>
<ellipse cx="209" cy="51.5" rx="14" ry="14.5" fill="#D9D9D9"/>
<ellipse cx="206.276" cy="52.5" rx="6.27586" ry="6.5" fill="black"/>
<path d="M129 14C154.909 12.2279 195.5 14.0001 195.5 14.0001C195.5 14.0001 263.526 17.407 275.5 49.4049C282.441 67.9545 278.552 81.3092 272 100C262.564 126.919 249.712 143.556 223.371 154.5C192.668 167.256 172.27 142.952 139.023 142.952C105.777 142.952 54.6762 154.5 54.6762 154.5C54.6762 154.5 24.6358 120.707 14.0234 94.4525C7.22008 77.6213 -3.15271 66.6411 2.5468 49.4049C10.3857 25.6987 37.0244 30.4717 60.9999 23.5001C86.7471 16.0133 102.249 15.8298 129 14Z" fill="#D9D9D9" fill-opacity="0.1"/>
<defs>
<filter id="filter0_ii_118_29" x="9.31787" y="2.6145" width="292.389" height="142.385" filterUnits="userSpaceOnUse" color-interpolation-filters="sRGB">
<feFlood flood-opacity="0" result="BackgroundImageFix"/>
<feBlend mode="normal" in="SourceGraphic" in2="BackgroundImageFix" result="shape"/>
<feColorMatrix in="SourceAlpha" type="matrix" values="0 0 0 0 0 0 0 0 0 0 0 0 0 0 0 0 0 0 127 0" result="hardAlpha"/>
<feOffset dx="1" dy="-3"/>
<feGaussianBlur stdDeviation="0.5"/>
<feComposite in2="hardAlpha" operator="arithmetic" k2="-1" k3="1"/>
<feColorMatrix type="matrix" values="0 0 0 0 0 0 0 0 0 0 0 0 0 0 0 0 0 0 0.05 0"/>
<feBlend mode="normal" in2="shape" result="effect1_innerShadow_118_29"/>
<feColorMatrix in="SourceAlpha" type="matrix" values="0 0 0 0 0 0 0 0 0 0 0 0 0 0 0 0 0 0 127 0" result="hardAlpha"/>
<feOffset dx="-3" dy="2"/>
<feGaussianBlur stdDeviation="1"/>
<feComposite in2="hardAlpha" operator="arithmetic" k2="-1" k3="1"/>
<feColorMatrix type="matrix" values="0 0 0 0 1 0 0 0 0 1 0 0 0 0 1 0 0 0 0.05 0"/>
<feBlend mode="normal" in2="effect1_innerShadow_118_29" result="effect2_innerShadow_118_29"/>
</filter>
<linearGradient id="paint0_linear_118_29" x1="88.0045" y1="69.6066" x2="179.59" y2="214.477" gradientUnits="userSpaceOnUse">
<stop stop-color="#FFB736"/>
<stop offset="1" stop-color="#FE6427"/>
</linearGradient>
<linearGradient id="paint1_linear_118_29" x1="76.8206" y1="51.3322" x2="295.16" y2="139.744" gradientUnits="userSpaceOnUse">
<stop stop-color="#F9B438"/>
<stop offset="1" stop-color="#F8652A"/>
</linearGradient>
<linearGradient id="paint2_linear_118_29" x1="180.575" y1="71.3858" x2="205.746" y2="84.8611" gradientUnits="userSpaceOnUse">
<stop stop-color="#E18E3D"/>
<stop offset="1" stop-color="#E18E3C"/>
</linearGradient>
<linearGradient id="paint3_linear_118_29" x1="18.9535" y1="12.538" x2="115.643" y2="69.9415" gradientUnits="userSpaceOnUse">
<stop stop-color="#FFB736"/>
<stop offset="1" stop-color="#FE6427"/>
</linearGradient>
</defs>
</svg>
