<svg width="614" height="auto" viewBox="0 0 614 284" fill="none" xmlns="http://www.w3.org/2000/svg">
<g filter="url(#filter0_ii_116_76)">
<path opacity="0.8" d="M98.9004 233.492C132.811 143.064 438.311 42.8594 438.311 42.8594C394.93 53.8574 304.808 169.948 304.808 169.948C304.808 169.948 114.175 31.2504 18.8594 44.0814C18.8594 44.0814 438.617 57.8289 594.116 264.042" stroke="url(#paint0_linear_116_76)" stroke-width="11" stroke-miterlimit="10"/>
<path fill-rule="evenodd" clip-rule="evenodd" d="M294.975 16.0325L294.611 15.9825L294.244 16.0094L14.2444 36.5094L14.7555 43.4907L19.1194 43.1712L17.7604 47.9277C18.067 48.0153 18.9467 48.469 20.391 49.9798C21.7595 51.4112 23.3337 53.4699 25.0881 56.1598C28.5914 61.5311 32.5463 69.0021 36.7694 77.9603C45.2031 95.8499 54.4936 119.21 63.1504 142.473C71.7998 165.716 79.7859 188.778 85.6113 206.035C88.5235 214.662 90.8945 221.834 92.537 226.849C93.3582 229.356 93.9972 231.323 94.4306 232.663C94.6474 233.333 94.8127 233.846 94.9237 234.191L95.049 234.581L95.0804 234.679L95.0882 234.703L95.0901 234.709C95.0905 234.71 95.0907 234.711 98.9004 233.492L95.0907 234.711L98.1212 244.181L102.493 235.25C104.721 230.699 109.282 226.092 116.105 221.548C122.877 217.037 131.557 212.798 141.562 208.854C161.569 200.967 186.394 194.443 210.709 189.249C234.995 184.061 258.635 180.228 276.213 177.692C284.999 176.424 292.263 175.482 297.327 174.856C299.859 174.543 301.841 174.31 303.187 174.155C303.59 174.109 303.936 174.069 304.223 174.037C304.415 174.015 304.581 173.997 304.72 173.981C304.892 173.962 305.022 173.948 305.109 173.939L305.205 173.928L305.229 173.925L305.234 173.925C305.235 173.925 305.236 173.925 304.808 169.948L305.236 173.925L305.515 173.895L305.787 173.826C326.562 168.577 354.728 171.5 385.775 179.251C416.692 186.97 449.918 199.331 480.54 212.424C511.144 225.51 539.052 239.288 559.314 249.797C569.443 255.051 577.654 259.484 583.33 262.602C586.168 264.161 588.372 265.391 589.863 266.23C590.34 266.498 590.745 266.727 591.074 266.913C591.259 267.018 591.42 267.109 591.557 267.187C591.747 267.295 591.89 267.377 591.985 267.431L592.092 267.492L592.118 267.507L592.124 267.51C592.124 267.51 592.124 267.511 592.29 267.223L592.473 266.903C593.094 268.237 593.58 269.29 593.921 270.03C594.024 270.254 594.114 270.449 594.19 270.615L594.352 270.968L594.461 271.206L594.488 271.265L594.495 271.28L594.496 271.283C594.496 271.284 594.496 271.284 599.5 269C604.503 266.716 604.503 266.716 604.503 266.715L604.501 266.71L604.493 266.694L604.464 266.631L604.351 266.384L604.184 266.019C604.107 265.851 604.016 265.653 603.912 265.427C603.525 264.589 602.956 263.358 602.222 261.78C600.754 258.625 598.625 254.084 595.978 248.532C590.686 237.43 583.317 222.271 575.016 206.056C558.546 173.887 537.991 136.722 522.618 119.355C509.196 104.191 491.311 84.1803 476.788 67.967C469.728 60.0851 463.46 53.0984 458.882 47.9987L589.51 71.9102L591.49 61.0899L585.792 60.0468L588.154 57.3893C584.552 54.1874 556.983 29.7185 543.651 17.8865L536.349 26.1136C545.532 34.2634 561.462 48.4023 571.668 57.4614L443.99 34.0899L443.566 36.4078L294.975 16.0325ZM442.304 43.3003L298.621 23.5979L307.465 85.5051L300.535 86.495L291.497 23.2293L24.4167 42.7834C25.0332 43.3066 25.6192 43.8716 26.1737 44.4516C28.0139 46.3765 29.8927 48.8823 31.7888 51.7893C35.5864 57.6118 39.7225 65.4635 44.0056 74.5489C52.5845 92.7465 61.9677 116.357 70.6481 139.683C79.3358 163.029 87.3503 186.174 93.1911 203.476C96.1121 212.129 98.4907 219.325 100.14 224.359L100.207 224.563C103.295 221.074 107.211 217.86 111.67 214.889C119.083 209.952 128.327 205.472 138.628 201.411C159.233 193.289 184.55 186.657 209.038 181.426C233.555 176.188 257.383 172.326 275.071 169.774C283.918 168.498 291.236 167.548 296.347 166.916C298.902 166.601 300.906 166.365 302.273 166.208C302.956 166.129 303.481 166.07 303.835 166.031L304.101 166.001C326.824 160.347 356.477 163.691 387.713 171.489C419.203 179.351 452.863 191.889 483.685 205.068C514.524 218.255 542.618 232.126 562.997 242.696C573.168 247.971 581.423 252.427 587.146 255.571C586.791 254.824 586.425 254.055 586.049 253.265C580.787 242.227 573.466 227.166 565.224 211.069C548.607 178.613 528.662 142.778 514.382 126.645C500.982 111.507 483.116 91.5175 468.595 75.3064C461.335 67.2021 454.914 60.0444 450.307 54.9129C448.004 52.3472 446.154 50.288 444.881 48.8704L443.417 47.242L443.038 46.8202L442.942 46.713L442.918 46.6861L442.912 46.6793L442.91 46.6776C442.91 46.6773 442.91 46.6772 444.391 45.346L442.01 44.9102L442.304 43.3003Z" fill="url(#paint1_linear_116_76)"/>
<path d="M15.5 56C24.0604 56 31 49.0604 31 40.5C31 31.9396 24.0604 25 15.5 25C6.93959 25 0 31.9396 0 40.5C0 49.0604 6.93959 56 15.5 56Z" fill="#F9B438"/>
<path d="M94 250C101.18 250 107 244.18 107 237C107 229.82 101.18 224 94 224C86.8203 224 81 229.82 81 237C81 244.18 86.8203 250 94 250Z" fill="#F99733"/>
<path d="M293 31C300.18 31 306 25.1797 306 18C306 10.8203 300.18 5 293 5C285.82 5 280 10.8203 280 18C280 25.1797 285.82 31 293 31Z" fill="#F8AD38"/>
<path d="M447.5 60.0001C457.165 60.0001 465 52.165 465 42.5C465 32.835 457.165 25 447.5 25C437.835 25 430 32.835 430 42.5C430 52.165 437.835 60.0001 447.5 60.0001Z" fill="#EE7A2D"/>
<path d="M533.5 35.0001C543.165 35.0001 551 27.165 551 17.5C551 7.83504 543.165 0 533.5 0C523.835 0 516 7.83504 516 17.5C516 27.165 523.835 35.0001 533.5 35.0001Z" fill="#F97C36"/>
<path d="M588.5 84.0001C598.165 84.0001 606 76.165 606 66.5C606 56.835 598.165 49 588.5 49C578.835 49 571 56.835 571 66.5C571 76.165 578.835 84.0001 588.5 84.0001Z" fill="#F8722D"/>
<path d="M306 115C319.255 115 330 104.255 330 91C330 77.7452 319.255 67 306 67C292.745 67 282 77.7452 282 91C282 104.255 292.745 115 306 115Z" fill="url(#paint2_linear_116_76)"/>
<path d="M599.258 283.182C606.99 283.182 613.258 276.914 613.258 269.182C613.258 261.45 606.99 255.182 599.258 255.182C591.526 255.182 585.258 261.45 585.258 269.182C585.258 276.914 591.526 283.182 599.258 283.182Z" fill="#F8652A"/>
<path d="M305.5 212C321.792 212 335 198.792 335 182.5C335 166.208 321.792 153 305.5 153C289.208 153 276 166.208 276 182.5C276 198.792 289.208 212 305.5 212Z" fill="#F88C31"/>
</g>
<defs>
<filter id="filter0_ii_116_76" x="-2" y="-1" width="616.258" height="286.182" filterUnits="userSpaceOnUse" color-interpolation-filters="sRGB">
<feFlood flood-opacity="0" result="BackgroundImageFix"/>
<feBlend mode="normal" in="SourceGraphic" in2="BackgroundImageFix" result="shape"/>
<feColorMatrix in="SourceAlpha" type="matrix" values="0 0 0 0 0 0 0 0 0 0 0 0 0 0 0 0 0 0 127 0" result="hardAlpha"/>
<feOffset dx="1" dy="-3"/>
<feGaussianBlur stdDeviation="0.5"/>
<feComposite in2="hardAlpha" operator="arithmetic" k2="-1" k3="1"/>
<feColorMatrix type="matrix" values="0 0 0 0 0 0 0 0 0 0 0 0 0 0 0 0 0 0 0.05 0"/>
<feBlend mode="normal" in2="shape" result="effect1_innerShadow_116_76"/>
<feColorMatrix in="SourceAlpha" type="matrix" values="0 0 0 0 0 0 0 0 0 0 0 0 0 0 0 0 0 0 127 0" result="hardAlpha"/>
<feOffset dx="-3" dy="2"/>
<feGaussianBlur stdDeviation="1"/>
<feComposite in2="hardAlpha" operator="arithmetic" k2="-1" k3="1"/>
<feColorMatrix type="matrix" values="0 0 0 0 1 0 0 0 0 1 0 0 0 0 1 0 0 0 0.05 0"/>
<feBlend mode="normal" in2="effect1_innerShadow_116_76" result="effect2_innerShadow_116_76"/>
</filter>
<linearGradient id="paint0_linear_116_76" x1="32.342" y1="69.064" x2="279.348" y2="459.779" gradientUnits="userSpaceOnUse">
<stop stop-color="#FFB736"/>
<stop offset="1" stop-color="#FE6427"/>
</linearGradient>
<linearGradient id="paint1_linear_116_76" x1="9.5" y1="33.5" x2="600" y2="271" gradientUnits="userSpaceOnUse">
<stop stop-color="#F9B438"/>
<stop offset="1" stop-color="#F8652A"/>
</linearGradient>
<linearGradient id="paint2_linear_116_76" x1="282" y1="73.8571" x2="349.886" y2="110.2" gradientUnits="userSpaceOnUse">
<stop stop-color="#E18E3D"/>
<stop offset="1" stop-color="#E18E3C"/>
</linearGradient>
</defs>
</svg>
